# Apple ModelIO OBJ File: Parchemin
mtllib Parchemin.mtl
g Cube_Material
v -1.42406 0.692709 -1
v -1.4882 0.598458 -1
v -1.4882 0.598458 1
v -1.42406 0.692709 1
v -1.3977 0.558074 1
v -1.3977 0.558074 -1
v 1.40752 -0.693981 1
v 1.44053 -0.619348 1
v 1.43682 -0.56681 1
v 1.34692 -0.666737 1
v 1.39408 -0.543087 1
v 1.42045 -0.540535 1
v -1.34017 0.692747 1
v -1.36374 0.716861 1
v -1.18593 0.594894 1
v -1.23081 0.675812 1
v -1.25257 0.674694 1
v -1.31765 0.522351 1
v -1.2348 0.485379 1
v -1.36374 0.716861 -1
v -1.2348 0.485379 -1
v -1.31765 0.522351 -1
v -1.25257 0.674694 -1
v -1.23081 0.675812 -1
v -1.18593 0.594894 -1
v -1.26548 0.707605 1
v -1.28269 0.715285 1
v -1.26548 0.707605 -1
v -1.28269 0.715285 -1
v -1.34017 0.692747 -1
v 1.22465 -0.612171 -1
v 1.27352 -0.502656 -1
v 1.27352 -0.502656 1
v 1.22465 -0.612171 1
v 1.39408 -0.543087 -1
v 1.34692 -0.666737 -1
v 1.28709 -0.640035 -1
v 1.37749 -0.503105 -1
v 1.37207 -0.500688 -1
v 1.33424 -0.516385 -1
v 1.40752 -0.693981 -1
v 1.44053 -0.619348 -1
v 1.43682 -0.56681 -1
v 1.42045 -0.540535 -1
v 1.31563 -0.494327 -1
v 1.28709 -0.640035 1
v 1.37749 -0.503105 1
v 1.33424 -0.516385 1
v 1.37207 -0.500688 1
v 1.31563 -0.494327 1
vn -0.8267 0.5626 -0
vn -0.4075 -0.9132 -0
vn -0 -0 1
vn -0.1797 0.9837 -0
vn -0.3717 0.9283 -0
vn -0 -0 -1
vn 0.5488 0.836 -0
vn 0.2178 0.976 -0
vn 0.4075 0.9132 -0
vn -0.41 -0.9121 -0
vn -0.4088 -0.9126 -0
vn 0.9146 -0.4044 -0
vn 0.9851 -0.1721 -0
vn 0.9512 0.3087 -0
vn 0.7612 0.6486 -0
vn 0.5381 0.8429 -0
vn 0.2629 0.9648 -0
vn -0.0415 0.9991 -0
vn -0.194 0.981 -0
vn 0.7854 0.619 -0
vn 0.8745 0.485 -0
vt 0.974938 0
vt 1 0
vt 1 0.439677
vt 0.974938 0.439677
vt 0 0.021785
vt 0 0
vt 0.439677 0
vt 0.439677 0.021785
vt 0.921221 0.697121
vt 0.903281 0.697059
vt 0.893066 0.691608
vt 0.921182 0.682513
vt 0.892134 0.680901
vt 0.889259 0.685967
vt 0.92122 0.021785
vt 0.88903 0.021267
vt 0.8863 0.014375
vt 0.921221 -0
vt 0.896554 0.00443
vt 0.894854 0.060999
vt 0.88263 0.04474
vt 0.884805 0.04047
vt 0.921219 0.041056
vt 0.921218 0.061001
vt 0.963088 0
vt 0.963088 0.439677
vt 0.921225 0.061001
vt 0.921224 0.041056
vt 0.957638 0.04047
vt 0.959813 0.04474
vt 0.947589 0.060999
vt 0 0.041056
vt 0.439677 0.041056
vt 0.879354 0.034931
vt 0.879354 0.030788
vt 0 0.061001
vt 0.439677 0.061001
vt 0.921223 0.021785
vt 0.963088 0.034931
vt 0.963088 0.030788
vt 0.953413 0.021267
vt 0.439677 0.02064
vt 0.439677 0.016497
vt 0.879354 0.016497
vt 0.879354 0.02064
vt 0.921259 0.653078
vt 0.947623 0.653076
vt 0.439677 0.638548
vt 0.439677 0.046515
vt 0.879354 0.046515
vt 0.879354 0.638548
vt 0 0.653077
vt 0.439677 0.653077
vt 0.89482 0.653076
vt 0.921184 0.653078
vt 0.950309 0.680901
vt 0.92126 0.682513
vt 0.92126 0.668109
vt 0.956848 0.673988
vt 0.956848 0.672684
vt 0.950308 0.666496
vt 0 0.697121
vt 0 0.682513
vt 0.439677 0.682513
vt 0.439677 0.697121
vt 0.991737 0.879354
vt 0.974325 0.879354
vt 0.974325 0.439677
vt 0.991737 0.439677
vt 0.439677 0.677098
vt 0.439677 0.671505
vt 0.879354 0.671505
vt 0.879354 0.677098
vt 0.953068 0.660784
vt 0 0.668108
vt 0.439677 0.668108
vt 0.885594 0.673988
vt 0.921183 0.668108
vt 0.892135 0.666496
vt 0.885594 0.672684
vt 0.439677 0.659571
vt 0.439677 0.658267
vt 0.879354 0.658267
vt 0.879354 0.659571
vt 0.889374 0.660784
vt 0.439677 0.646322
vt 0.879354 0.646322
vt 0.956142 0.014375
vt 0.879354 0
vt 0.945889 0.00443
vt 0.879354 0.030408
vt 0.439677 0.030408
vt 0.953184 0.685967
vt 0.963088 0.879354
vt 0.939161 0.697059
vt 0.949376 0.691608
usemtl Material
f 1/1/1 2/2/1 3/3/1
f 1/1/1 3/3/1 4/4/1
f 5/5/2 3/6/2 2/7/2
f 5/5/2 2/7/2 6/8/2
f 7/9/3 8/10/3 9/11/3
f 10/12/3 7/9/3 9/11/3
f 11/13/3 10/12/3 9/11/3
f 12/14/3 11/13/3 9/11/3
f 5/15/3 13/16/3 14/17/3
f 3/18/3 5/15/3 14/17/3
f 4/19/3 3/18/3 14/17/3
f 15/20/3 16/21/3 17/22/3
f 15/20/3 17/22/3 18/23/3
f 15/20/3 18/23/3 19/24/3
f 20/25/4 1/1/5 4/4/5
f 20/25/4 4/4/5 14/26/4
f 21/27/6 22/28/6 23/29/6
f 21/27/6 23/29/6 24/30/6
f 21/27/6 24/30/6 25/31/6
f 18/32/2 5/5/2 6/8/2
f 18/32/2 6/8/2 22/33/2
f 18/23/3 17/22/3 26/34/3
f 5/15/3 18/23/3 26/34/3
f 13/16/3 5/15/3 26/34/3
f 27/35/3 13/16/3 26/34/3
f 19/36/2 18/32/2 22/33/2
f 19/36/2 22/33/2 21/37/2
f 23/29/6 22/28/6 6/38/6
f 28/39/6 23/29/6 6/38/6
f 29/40/6 28/39/6 6/38/6
f 30/41/6 29/40/6 6/38/6
f 28/42/7 29/43/8 27/44/8
f 28/42/7 27/44/8 26/45/7
f 31/46/6 21/27/6 25/31/6
f 31/46/6 25/31/6 32/47/6
f 32/48/9 25/49/9 15/50/9
f 32/48/9 15/50/9 33/51/9
f 34/52/2 19/36/2 21/37/2
f 34/52/2 21/37/2 31/53/2
f 33/54/3 15/20/3 34/55/3
f 15/20/3 19/24/3 34/55/3
f 35/56/6 36/57/6 37/58/6
f 38/59/6 35/56/6 37/58/6
f 39/60/6 38/59/6 37/58/6
f 40/61/6 39/60/6 37/58/6
f 7/62/10 10/63/11 36/64/11
f 7/62/10 36/64/11 41/65/10
f 41/66/12 42/67/13 8/68/13
f 41/66/12 8/68/13 7/69/12
f 43/70/14 44/71/15 12/72/15
f 43/70/14 12/72/15 9/73/14
f 37/58/6 31/46/6 32/47/6
f 37/58/6 32/47/6 45/74/6
f 37/58/6 45/74/6 40/61/6
f 10/63/11 46/75/2 37/76/2
f 10/63/11 37/76/2 36/64/11
f 10/12/3 11/13/3 47/77/3
f 46/78/3 10/12/3 47/77/3
f 48/79/3 46/78/3 47/77/3
f 49/80/3 48/79/3 47/77/3
f 38/81/16 39/82/17 49/83/17
f 38/81/16 49/83/17 47/84/16
f 46/75/2 34/52/2 31/53/2
f 46/75/2 31/53/2 37/76/2
f 48/79/3 50/85/3 33/54/3
f 48/79/3 33/54/3 34/55/3
f 48/79/3 34/55/3 46/78/3
f 45/86/18 32/48/19 33/51/19
f 45/86/18 33/51/19 50/87/18
f 20/88/6 29/40/6 30/41/6
f 27/35/3 14/17/3 13/16/3
f 20/7/4 14/89/4 27/44/8
f 20/7/4 27/44/8 29/43/8
f 30/41/6 6/38/6 2/18/6
f 20/88/6 30/41/6 2/18/6
f 1/90/6 20/88/6 2/18/6
f 28/39/6 24/30/6 23/29/6
f 16/21/3 26/34/3 17/22/3
f 28/42/7 26/45/7 16/91/20
f 28/42/7 16/91/20 24/92/20
f 25/49/21 24/92/20 16/91/20
f 25/49/21 16/91/20 15/50/21
f 38/59/6 44/93/6 35/56/6
f 12/14/3 47/77/3 11/13/3
f 45/74/6 39/60/6 40/61/6
f 49/80/3 50/85/3 48/79/3
f 8/68/13 42/67/13 43/94/14
f 8/68/13 43/94/14 9/26/14
f 38/81/16 47/84/16 12/72/15
f 38/81/16 12/72/15 44/71/15
f 45/86/18 50/87/18 49/83/17
f 45/86/18 49/83/17 39/82/17
f 42/95/6 41/9/6 36/57/6
f 43/96/6 42/95/6 36/57/6
f 44/93/6 43/96/6 36/57/6
f 35/56/6 44/93/6 36/57/6
s off
