# Apple ModelIO OBJ File: Panneau
mtllib Panneau.mtl
g Cube.001_Material
v -2.12251 140.912 -76.9749
v -2.12251 140.912 76.9748
v -2.12251 252.765 76.9748
v -2.12251 252.765 -76.9749
v 2.12251 140.912 -76.9749
v 2.12251 252.765 -76.9749
v 2.12251 140.912 76.9748
v 2.12251 252.765 76.9748
v 6.72155 187.724 2.93514
v 6.72155 187.724 -2.9352
v -0.391513 187.724 -2.9352
v -0.391513 187.724 2.93514
v -0.391513 -3.50968 2.93517
v 6.72155 -3.50968 2.93517
v -0.391513 -3.50968 -2.93517
v 6.72155 -3.50968 -2.93517
vn -1 0 0
vn 0 -0 -1
vn 1 0 0
vn 0 0 1
vn 0 -1 0
vn 0 1 -0
vt 0.96132 0.500422
vt 0.306336 0.500422
vt 0.306336 0.024537
vt 0.96132 0.024537
vt 0.97938 0.500422
vt 0.97938 0.024537
vt 0.306336 0.518483
vt 0.96132 0.518483
vt 0.96132 0.994368
vt 0.306336 0.994368
vt 0.288275 0.500422
vt 0.288275 0.024537
vt 0.306336 0.006476
vt 0.96132 0.006476
vt 0.032796 0.999929
vt 0.018 0.999929
vt 0.018 0.982
vt 0.032796 0.982
vt 0.032796 0.5
vt 0.050724 0.5
vt 0.050724 0.982
vt 0.018 0.5
vt 0.018 0.482072
vt 0.032796 0.482072
vt 0.018 7.1e-05
vt 0.032796 7.1e-05
vt 7.1e-05 0.5
vt 7.1e-05 0.982
usemtl Material
f 1/1/1 2/2/1 3/3/1
f 3/3/1 4/4/1 1/1/1
f 5/5/2 1/1/2 4/4/2
f 4/4/2 6/6/2 5/5/2
f 7/7/3 5/8/3 6/9/3
f 6/9/3 8/10/3 7/7/3
f 2/2/4 7/11/4 8/12/4
f 8/12/4 3/3/4 2/2/4
f 2/2/5 1/1/5 5/8/5
f 5/8/5 7/7/5 2/2/5
f 8/13/6 6/14/6 4/4/6
f 4/4/6 3/3/6 8/13/6
f 9/15/6 10/16/6 11/17/6
f 11/17/6 12/18/6 9/15/6
f 13/19/4 14/20/4 9/21/4
f 9/21/4 12/18/4 13/19/4
f 15/22/1 13/19/1 12/18/1
f 12/18/1 11/17/1 15/22/1
f 13/19/5 15/22/5 16/23/5
f 16/23/5 14/24/5 13/19/5
f 14/24/3 16/23/3 10/25/3
f 10/25/3 9/26/3 14/24/3
f 16/27/2 15/22/2 11/17/2
f 11/17/2 10/28/2 16/27/2
s off
